<svg xmlns="http://www.w3.org/2000/svg" width="135" height="41" viewBox="0 0 135 41" fill="none"><g clip-path="url(#clip0_142_3909)"><path d="M40.207 5.31885H44.3479V18.3512H50.6811V21.9934H40.207V5.31885Z" fill="white"></path><path d="M62.7188 6.18461V10.0998C61.6109 9.25747 59.9137 8.70373 58.3579 8.70373C56.9907 8.70373 56.1421 9.14828 56.1421 9.98278C56.1421 10.8173 56.9671 11.1683 58.57 11.7532C60.9037 12.6423 63.7246 13.664 63.7246 16.9786C63.7246 20.0827 61.3202 22.2742 57.25 22.2742C55.1756 22.2742 53.2505 21.6659 52.0483 20.8548V16.6822C53.2741 17.7741 55.0892 18.6164 56.9435 18.6164C58.4758 18.6164 59.3715 18.0081 59.3715 17.1034C59.3715 16.0973 58.2165 15.6839 56.5428 15.0288C54.6099 14.3035 51.9697 13.1882 51.9697 10.131C51.9697 7.23749 54.2798 5.06934 58.2086 5.06934C59.9294 5.06934 61.5323 5.49049 62.711 6.19241L62.7188 6.18461Z" fill="white"></path><path d="M78.1746 12.8762C79.4711 12.8762 80.3197 11.9871 80.3197 10.825C80.3197 9.66296 79.4711 8.79726 78.1746 8.79726H75.7938V12.8762H78.1746ZM71.6529 5.31885H78.6225C82.2055 5.31885 84.5785 7.62739 84.5785 10.8016C84.5785 12.8294 83.2584 14.6934 81.2312 15.4421L85.5921 21.9934H80.9483L77.3181 16.261H75.7859V21.9934H71.645V5.31885H71.6529Z" fill="white"></path><path d="M89.8508 14.6936H93.8739C93.756 13.6641 93.0488 12.9466 91.8702 12.9466C90.6916 12.9466 90.008 13.6719 89.843 14.6936H89.8508ZM97.6691 15.4891C97.6691 15.9337 97.6219 16.5654 97.5512 16.8618H89.898C90.1337 18.3514 91.5716 18.913 93.151 18.913C94.6125 18.913 96.1211 18.4216 96.8047 17.9303V21.4711C95.7675 22.0092 94.141 22.2666 92.6403 22.2666C88.6879 22.2666 85.7178 20.075 85.7178 15.9961C85.7178 12.4553 88.3343 9.72559 91.9095 9.72559C95.4847 9.72559 97.6848 12.3617 97.6848 15.4813L97.6691 15.4891Z" fill="white"></path><path d="M107.357 21.7361C106.815 22.0169 105.896 22.2743 104.694 22.2743C102.03 22.2743 100.309 20.7144 100.309 17.9146V13.1337H98.7769V10.0062H100.427V7.39353L104.403 6.52783V9.99844H107.059V13.1259H104.403V17.2516C104.403 18.2967 105.063 18.7179 105.959 18.7179C106.407 18.7179 106.949 18.5775 107.349 18.3201V21.7205L107.357 21.7361Z" fill="white"></path><path d="M115.71 17.2362V17.0022L113.8 17.2596C112.905 17.3765 112.386 17.7743 112.386 18.3748C112.386 18.9754 112.857 19.3575 113.612 19.3575C114.672 19.3575 115.71 18.4918 115.71 17.2362ZM113.871 9.7334C116.959 9.7334 119.646 11.223 119.646 14.6312V22.0014H115.835V20.582C115.222 21.5413 114.044 22.2822 112.535 22.2822C110.249 22.2822 108.606 20.8628 108.606 18.9286C108.606 16.9944 110.115 15.5983 112.771 15.2006L115.694 14.8028V14.6157C115.694 13.7032 114.822 13.1962 113.525 13.1962C111.899 13.1962 110.39 13.8279 109.502 14.4519V10.8175C110.61 10.1624 112.26 9.7412 113.887 9.7412L113.871 9.7334Z" fill="white"></path><path d="M122.286 10.0062H126.38V21.9857H122.286V10.0062ZM126.553 6.65261C126.553 7.86148 125.61 8.75058 124.337 8.75058C123.064 8.75058 122.145 7.86148 122.145 6.65261C122.145 5.44375 123.088 4.53125 124.337 4.53125C125.587 4.53125 126.553 5.44375 126.553 6.65261Z" fill="white"></path><path d="M129.091 5.34229H133.185V17.6493C133.185 18.398 133.444 18.788 134.199 18.788C134.482 18.788 134.764 18.7412 135 18.6476V21.9544C134.552 22.1416 133.892 22.2586 133.114 22.2586C130.663 22.2586 129.091 20.9795 129.091 18.3902V5.34229Z" fill="white"></path><path d="M21.0581 8.78972C18.9838 8.78972 17.6323 9.43705 17.6323 11.535C17.6323 12.6893 18.253 13.5472 21.0739 13.6564C22.7868 13.7266 24.2247 13.9839 25.4034 14.7794C26.857 15.7621 27.462 17.3766 27.4856 18.8896C27.517 20.8472 26.6291 23.3195 23.0854 24.505C21.0817 25.1757 18.7559 25.2303 16.3594 25.2303C16.0686 25.2303 15.7779 25.2069 15.4793 25.2069C13.0749 25.1991 11.4327 24.7545 11.4327 24.7545C9.80618 24.427 7.63751 23.7172 6.33316 22.056C4.20377 19.3341 4.14091 15.653 4.20377 13.6798C4.21949 13.2274 4.25092 12.7595 4.29806 12.2759C4.63593 8.9925 5.86171 5.28011 7.61393 2.33984C3.04086 5.13193 0 10.1234 0 15.8245C0 24.5596 7.15034 31.6412 15.9743 31.6412C24.7983 31.6412 31.9487 24.5596 31.9487 15.8245C31.9487 14.6625 31.8229 13.5238 31.5794 12.4241C31.3986 12.3071 26.2362 8.78972 21.066 8.78972H21.0581Z" fill="white"></path><path d="M9.51521 3.79817C8.53302 6.2315 7.86513 8.47765 7.50369 11.0748C7.11081 13.9136 7.30725 15.9024 7.55083 16.7681C8.67446 20.8393 10.2695 21.8921 16.367 21.8921C22.4644 21.8921 24.1145 21.1356 24.1145 18.7803C24.1145 18.1408 23.6509 16.7993 20.445 16.7837C18.4178 16.7759 13.9626 16.1988 14.2612 11.0904C14.4419 8.0019 16.9406 5.95853 19.84 5.97413C26.1889 5.99753 30.2905 9.45254 30.7619 9.8191C28.3733 4.05554 22.653 0 15.9741 0C14.269 0 12.6189 0.26517 11.071 0.756515C10.9217 0.967092 10.2617 1.91858 9.51521 3.79037V3.79817Z" fill="white"></path><path d="M91.4928 36.7729C91.6657 36.7729 91.8307 36.7495 91.9957 36.6871C92.1607 36.6247 92.3021 36.5545 92.42 36.4531C92.5378 36.3517 92.64 36.2347 92.7186 36.1022C92.7971 35.9618 92.8364 35.8214 92.8521 35.6576H93.7872C93.7715 35.915 93.7007 36.1568 93.575 36.3829C93.4493 36.6169 93.2843 36.8197 93.0721 36.9913C92.8679 37.1628 92.6243 37.3032 92.3571 37.4124C92.0821 37.5138 91.7914 37.5684 91.4928 37.5684C91.0606 37.5684 90.6756 37.4904 90.3534 37.3344C90.0313 37.1784 89.7641 36.9757 89.552 36.7105C89.3398 36.4531 89.1748 36.149 89.0727 35.798C88.9705 35.447 88.9155 35.0883 88.9155 34.7061V34.4799C88.9155 34.0978 88.9705 33.7312 89.0727 33.3803C89.1748 33.0293 89.3398 32.7329 89.552 32.4678C89.7641 32.2026 90.0313 31.9998 90.3534 31.8438C90.6756 31.6879 91.0528 31.6099 91.4849 31.6099C91.8228 31.6099 92.1292 31.6645 92.4043 31.7736C92.6793 31.8828 92.9229 32.0232 93.1193 32.2104C93.3157 32.3976 93.4807 32.616 93.5907 32.8655C93.7086 33.1229 93.7715 33.3959 93.7793 33.6844H92.8443C92.8286 33.5051 92.7893 33.3413 92.7186 33.1931C92.6478 33.0371 92.5536 32.9045 92.4357 32.7953C92.3178 32.6783 92.1764 32.5848 92.0192 32.5224C91.8542 32.4522 91.6735 32.421 91.4771 32.421C91.1706 32.421 90.9192 32.4834 90.7149 32.6004C90.5106 32.7173 90.3535 32.8811 90.2277 33.0761C90.1099 33.2711 90.0156 33.4973 89.9684 33.739C89.9213 33.9808 89.8977 34.2304 89.8977 34.4799V34.7061C89.8977 34.9635 89.9213 35.2131 89.9684 35.4548C90.0156 35.6966 90.102 35.9228 90.2277 36.11C90.3456 36.3049 90.5106 36.4609 90.7149 36.5779C90.9192 36.6949 91.1706 36.7573 91.4849 36.7573L91.4928 36.7729Z" fill="#EEEBF2"></path><path d="M95.6416 34.6672C95.6416 34.9557 95.673 35.2209 95.7437 35.4783C95.8144 35.7356 95.9087 35.954 96.0501 36.149C96.1916 36.344 96.3566 36.4922 96.5609 36.6091C96.7652 36.7261 97.0088 36.7807 97.2759 36.7807C97.5431 36.7807 97.7867 36.7261 97.9909 36.6091C98.1952 36.4922 98.3681 36.344 98.5017 36.149C98.6353 35.954 98.7374 35.7356 98.8081 35.4783C98.8788 35.2209 98.9103 34.9557 98.9103 34.6672V34.5502C98.9103 34.2694 98.8788 33.9964 98.8081 33.7391C98.7374 33.4817 98.6353 33.2555 98.4938 33.0683C98.3524 32.8812 98.1795 32.7174 97.9752 32.6082C97.7709 32.4912 97.5274 32.4366 97.2523 32.4366C96.9773 32.4366 96.7495 32.4912 96.5373 32.6082C96.333 32.7252 96.1601 32.8734 96.0266 33.0683C95.893 33.2633 95.7908 33.4895 95.7201 33.7391C95.6494 33.9964 95.618 34.2616 95.618 34.5502V34.6672H95.6416ZM94.6436 34.5502C94.6436 34.129 94.7065 33.7469 94.8322 33.3959C94.9501 33.0449 95.1308 32.733 95.3587 32.4756C95.5865 32.2182 95.8616 32.0077 96.1837 31.8595C96.5059 31.7113 96.8752 31.6333 97.2759 31.6333C97.6766 31.6333 98.0538 31.7035 98.376 31.8595C98.706 32.0077 98.981 32.2104 99.2089 32.4756C99.4367 32.733 99.6096 33.0449 99.7353 33.3959C99.8532 33.7469 99.916 34.1368 99.916 34.5502V34.6672C99.916 35.0883 99.8532 35.4705 99.7353 35.8214C99.6175 36.1724 99.4367 36.4844 99.2089 36.7417C98.981 36.9991 98.706 37.2019 98.376 37.3501C98.0459 37.4982 97.6845 37.5684 97.2759 37.5684C96.8673 37.5684 96.5059 37.4982 96.1759 37.3501C95.8537 37.2019 95.5787 36.9991 95.343 36.7417C95.1151 36.4844 94.9344 36.1802 94.8165 35.8214C94.6986 35.4705 94.6279 35.0805 94.6279 34.6672V34.5502H94.6436Z" fill="#EEEBF2"></path><path d="M102.085 31.7347L102.109 32.3664C102.305 32.1324 102.549 31.953 102.831 31.8205C103.114 31.6879 103.444 31.6255 103.822 31.6255C104.199 31.6255 104.529 31.6957 104.812 31.8439C105.102 31.992 105.314 32.226 105.472 32.5458C105.66 32.2728 105.912 32.0466 106.226 31.875C106.54 31.7035 106.894 31.6177 107.318 31.6177C107.632 31.6177 107.9 31.6567 108.143 31.7347C108.387 31.8127 108.583 31.9374 108.748 32.109C108.913 32.2806 109.039 32.4912 109.125 32.7563C109.212 33.0215 109.251 33.3257 109.251 33.6922V37.4514H108.261V33.6844C108.261 33.4427 108.23 33.2477 108.175 33.0839C108.12 32.9201 108.033 32.7953 107.923 32.7018C107.813 32.6082 107.687 32.538 107.53 32.5068C107.373 32.4678 107.208 32.4522 107.027 32.4522C106.823 32.4522 106.642 32.4834 106.485 32.5458C106.328 32.6082 106.195 32.694 106.077 32.8031C105.967 32.9123 105.872 33.0371 105.809 33.1853C105.747 33.3335 105.699 33.4895 105.684 33.6532V37.4514H104.686V33.6922C104.686 33.4661 104.654 33.2789 104.599 33.1229C104.544 32.9669 104.458 32.8421 104.348 32.7407C104.238 32.6394 104.112 32.5692 103.963 32.5224C103.814 32.4756 103.641 32.4522 103.452 32.4522C103.099 32.4522 102.816 32.5302 102.604 32.6784C102.391 32.8265 102.226 33.0293 102.124 33.2711V37.4514H101.134V31.7269H102.069L102.085 31.7347Z" fill="#EEEBF2"></path><path d="M114.649 34.5502C114.649 34.2616 114.618 33.9964 114.555 33.7391C114.492 33.4895 114.398 33.2633 114.272 33.0761C114.146 32.889 113.981 32.733 113.785 32.6238C113.588 32.5146 113.353 32.46 113.086 32.46C112.921 32.46 112.763 32.4834 112.63 32.5146C112.496 32.5536 112.371 32.6082 112.261 32.6784C112.151 32.7486 112.048 32.8344 111.97 32.928C111.883 33.0215 111.805 33.1307 111.742 33.2399V35.9774C111.805 36.0944 111.883 36.1958 111.97 36.2894C112.056 36.383 112.151 36.4688 112.261 36.5389C112.371 36.6091 112.496 36.6637 112.638 36.7027C112.779 36.7417 112.928 36.7573 113.101 36.7573C113.368 36.7573 113.604 36.7027 113.793 36.5857C113.989 36.4688 114.146 36.3206 114.272 36.1334C114.398 35.9462 114.492 35.72 114.555 35.4627C114.618 35.2053 114.649 34.9323 114.649 34.6516V34.5424V34.5502ZM115.639 34.6672C115.639 35.0883 115.592 35.4783 115.49 35.8292C115.388 36.1802 115.246 36.4922 115.058 36.7495C114.869 37.0069 114.634 37.2097 114.358 37.3579C114.083 37.4982 113.761 37.5762 113.408 37.5762C113.054 37.5762 112.724 37.5216 112.449 37.4047C112.174 37.2877 111.946 37.1239 111.75 36.9133V39.6664H110.76V31.7425H111.663L111.711 32.3742C111.907 32.1324 112.143 31.9531 112.426 31.8205C112.708 31.6957 113.023 31.6333 113.392 31.6333C113.761 31.6333 114.076 31.7035 114.358 31.8439C114.641 31.9843 114.877 32.187 115.066 32.4366C115.254 32.694 115.404 32.9981 115.498 33.3569C115.592 33.7157 115.647 34.1134 115.647 34.5502V34.6594L115.639 34.6672Z" fill="#EEEBF2"></path><path d="M118.829 36.7183C119.01 36.7183 119.175 36.6949 119.332 36.6482C119.489 36.6014 119.631 36.5312 119.764 36.4532C119.89 36.3752 120 36.2816 120.102 36.1802C120.197 36.0788 120.267 35.9696 120.322 35.8604V34.6828H119.497C118.932 34.6828 118.491 34.7686 118.185 34.9401C117.879 35.1117 117.729 35.3769 117.729 35.7357C117.729 35.876 117.753 36.0008 117.8 36.1256C117.847 36.2426 117.918 36.3518 118.012 36.4376C118.106 36.5234 118.224 36.5936 118.358 36.6482C118.499 36.7027 118.656 36.7261 118.837 36.7261L118.829 36.7183ZM120.472 37.4671C120.432 37.3969 120.409 37.3033 120.385 37.2019C120.362 37.1005 120.346 36.9835 120.33 36.8665C120.236 36.9601 120.134 37.0537 120.016 37.1395C119.898 37.2253 119.772 37.3033 119.639 37.3657C119.505 37.4281 119.348 37.4827 119.191 37.5217C119.026 37.5606 118.861 37.5762 118.688 37.5762C118.389 37.5762 118.122 37.5295 117.886 37.4437C117.651 37.3501 117.439 37.2331 117.274 37.0849C117.109 36.9289 116.975 36.7573 116.881 36.5468C116.786 36.3362 116.739 36.1178 116.739 35.8838C116.739 35.5797 116.802 35.3067 116.92 35.0727C117.038 34.8388 117.211 34.6438 117.439 34.48C117.666 34.3162 117.941 34.1992 118.256 34.1212C118.578 34.0354 118.931 34.0042 119.332 34.0042H120.314V33.5519C120.314 33.2087 120.212 32.9358 120 32.733C119.796 32.5302 119.489 32.4288 119.089 32.4288C118.9 32.4288 118.735 32.4522 118.586 32.499C118.436 32.5458 118.303 32.616 118.193 32.694C118.083 32.772 118.004 32.8734 117.941 32.9826C117.879 33.0918 117.847 33.2087 117.847 33.3257H116.849C116.849 33.1229 116.904 32.9202 117.014 32.7174C117.124 32.5146 117.281 32.3352 117.478 32.1793C117.674 32.0233 117.918 31.8907 118.201 31.7893C118.484 31.6879 118.798 31.6411 119.152 31.6411C119.466 31.6411 119.757 31.6801 120.016 31.7581C120.283 31.8361 120.511 31.9609 120.699 32.1169C120.888 32.2806 121.037 32.4756 121.139 32.7174C121.242 32.9592 121.304 33.2399 121.304 33.5597V36.2192C121.304 36.4142 121.32 36.617 121.352 36.8275C121.383 37.0381 121.438 37.2253 121.501 37.3813V37.4671H120.464H120.472Z" fill="#EEEBF2"></path><path d="M123.788 31.7347L123.819 32.4522C124.023 32.1948 124.275 31.992 124.565 31.8439C124.856 31.6957 125.186 31.6255 125.548 31.6255C125.83 31.6255 126.082 31.6645 126.318 31.7425C126.546 31.8205 126.742 31.9375 126.899 32.109C127.064 32.2728 127.182 32.4912 127.268 32.7564C127.355 33.0137 127.402 33.3413 127.402 33.7157V37.467H126.412V33.7079C126.412 33.4817 126.388 33.2945 126.341 33.1385C126.294 32.9825 126.216 32.8578 126.121 32.7564C126.027 32.655 125.901 32.5848 125.76 32.538C125.618 32.4912 125.445 32.4678 125.257 32.4678C124.935 32.4678 124.652 32.5536 124.416 32.7252C124.18 32.8967 123.984 33.1151 123.85 33.3959V37.4748H122.86V31.7503H123.795L123.788 31.7347Z" fill="#EEEBF2"></path><path d="M42.2971 36.7183C42.4779 36.7183 42.6429 36.6949 42.8 36.6482C42.9572 36.6014 43.0986 36.5312 43.2322 36.4532C43.3579 36.3752 43.4679 36.2816 43.5701 36.1802C43.6643 36.0788 43.7351 35.9696 43.7901 35.8604V34.6828H42.965C42.3993 34.6828 41.9593 34.7686 41.6528 34.9401C41.3464 35.1117 41.1971 35.3769 41.1971 35.7357C41.1971 35.876 41.2207 36.0008 41.2678 36.1256C41.3149 36.2426 41.3857 36.3518 41.48 36.4376C41.5742 36.5234 41.6921 36.5936 41.8257 36.6482C41.9671 36.7027 42.1243 36.7261 42.305 36.7261L42.2971 36.7183ZM43.9394 37.4671C43.9001 37.3969 43.8765 37.3033 43.8529 37.2019C43.8293 37.1005 43.8136 36.9835 43.7979 36.8665C43.7036 36.9601 43.6015 37.0537 43.4836 37.1395C43.3658 37.2253 43.24 37.3033 43.1065 37.3657C42.9729 37.4281 42.8157 37.4827 42.6586 37.5217C42.4936 37.5606 42.3286 37.5762 42.1557 37.5762C41.8571 37.5762 41.59 37.5295 41.3542 37.4437C41.1185 37.3501 40.9064 37.2331 40.7413 37.0849C40.5763 36.9289 40.4428 36.7573 40.3485 36.5468C40.2542 36.3362 40.207 36.1178 40.207 35.8838C40.207 35.5797 40.2699 35.3067 40.3878 35.0727C40.5056 34.8388 40.6785 34.6438 40.9064 34.48C41.1342 34.3162 41.4092 34.1992 41.7235 34.1212C42.0457 34.0354 42.3993 34.0042 42.8 34.0042H43.7822V33.5519C43.7822 33.2087 43.6801 32.9358 43.4679 32.733C43.2636 32.5302 42.9572 32.4288 42.5564 32.4288C42.3678 32.4288 42.2028 32.4522 42.0535 32.499C41.9043 32.5458 41.7707 32.616 41.6607 32.694C41.5507 32.772 41.4721 32.8734 41.4092 32.9826C41.3464 33.0918 41.3149 33.2087 41.3149 33.3257H40.317C40.317 33.1229 40.372 32.9202 40.482 32.7174C40.5921 32.5146 40.7492 32.3352 40.9456 32.1793C41.1421 32.0233 41.3857 31.8907 41.6685 31.7893C41.9514 31.6879 42.2657 31.6411 42.6193 31.6411C42.9336 31.6411 43.2243 31.6801 43.4836 31.7581C43.7508 31.8361 43.9786 31.9609 44.1672 32.1169C44.3558 32.2806 44.5051 32.4756 44.6072 32.7174C44.7172 32.9592 44.7722 33.2399 44.7722 33.5597V36.2192C44.7722 36.4142 44.788 36.617 44.8194 36.8275C44.8508 37.0381 44.9058 37.2253 44.9687 37.3813V37.4671H43.9315H43.9394Z" fill="#EEEBF2"></path><path d="M47.2631 31.7347L47.2946 32.4522C47.4988 32.1948 47.7503 31.992 48.041 31.8439C48.3317 31.6957 48.6618 31.6255 49.0232 31.6255C49.3061 31.6255 49.5575 31.6645 49.7932 31.7425C50.0211 31.8205 50.2176 31.9375 50.3747 32.109C50.5397 32.2728 50.6576 32.4912 50.744 32.7564C50.8304 33.0215 50.8776 33.3413 50.8776 33.7157V37.467H49.8875V33.7079C49.8875 33.4817 49.864 33.2945 49.8168 33.1385C49.7697 32.9825 49.6911 32.8578 49.5968 32.7564C49.5025 32.655 49.3768 32.5848 49.2354 32.538C49.0939 32.4912 48.9211 32.4678 48.7325 32.4678C48.4103 32.4678 48.1275 32.5536 47.8917 32.7252C47.6481 32.8967 47.4596 33.1151 47.326 33.3959V37.4748H46.3359V31.7503H47.271L47.2631 31.7347Z" fill="#EEEBF2"></path><path d="M130.781 36.0322L132.124 31.7427H133.185L130.859 38.3563C130.804 38.4967 130.741 38.6527 130.647 38.8165C130.561 38.9803 130.451 39.1362 130.309 39.2844C130.168 39.4248 130.003 39.5496 129.814 39.6432C129.626 39.7368 129.398 39.7914 129.139 39.7914C129.099 39.7914 129.052 39.7914 128.997 39.7836C128.942 39.7836 128.887 39.768 128.832 39.7602C128.777 39.7602 128.73 39.7446 128.683 39.7368C128.636 39.729 128.604 39.7212 128.573 39.7134V38.9179C128.573 38.9179 128.604 38.9179 128.628 38.9179C128.651 38.9179 128.675 38.9179 128.706 38.9179C128.73 38.9179 128.754 38.9179 128.777 38.9179C128.801 38.9179 128.816 38.9179 128.832 38.9179C128.997 38.9179 129.146 38.9023 129.272 38.8711C129.398 38.8399 129.516 38.7853 129.61 38.7151C129.704 38.6449 129.799 38.5513 129.869 38.4265C129.94 38.3095 130.011 38.1613 130.066 37.982L130.286 37.397L128.227 31.7349H129.304L130.749 36.0244L130.781 36.0322Z" fill="#EEEBF2"></path><path d="M59.9763 31.7188C59.5205 31.36 58.9234 31.1807 58.2005 31.1807C57.7447 31.1807 57.3361 31.2275 56.9826 31.3288C56.629 31.4224 56.2989 31.5706 55.9846 31.7578C55.9375 31.7812 55.9218 31.8436 55.9454 31.8904L56.4247 32.8263C56.4247 32.8263 56.4561 32.8653 56.4875 32.8731C56.4954 32.8731 56.5111 32.8731 56.519 32.8731C56.5347 32.8731 56.5504 32.8731 56.5661 32.8575C56.8018 32.7249 57.0533 32.6313 57.3047 32.5689C57.5562 32.5065 57.8469 32.4753 58.1612 32.4753C58.5226 32.4753 58.7898 32.5611 58.9784 32.7249C59.1591 32.8887 59.2534 33.1226 59.2534 33.4424V33.7622C58.8998 33.6374 58.4598 33.575 57.949 33.575C57.5797 33.575 57.2418 33.614 56.9275 33.6998C56.6132 33.7856 56.3304 33.9104 56.1025 34.0897C55.8668 34.2691 55.6782 34.4875 55.5446 34.7605C55.4111 35.0256 55.3403 35.3454 55.3403 35.712C55.3403 36.1097 55.411 36.4529 55.5525 36.7336C55.6939 37.0144 55.8746 37.2484 56.0868 37.4278C56.3068 37.5993 56.5504 37.7319 56.8254 37.8099C57.0926 37.8879 57.3597 37.9269 57.6269 37.9269C57.9883 37.9269 58.3183 37.8489 58.6326 37.7007C58.8605 37.5915 59.0727 37.4512 59.2534 37.303V37.7007C59.2534 37.7553 59.3005 37.8021 59.3477 37.8021H60.5577C60.6127 37.8021 60.652 37.7553 60.652 37.7007V33.3956C60.652 32.6547 60.4163 32.101 59.9605 31.7344M59.2455 35.8835C59.1119 36.0629 58.9155 36.2345 58.6719 36.3827C58.4205 36.5387 58.1376 36.6167 57.8155 36.6167C57.4304 36.6167 57.1476 36.5309 56.9747 36.3593C56.794 36.1877 56.7075 35.9615 56.7075 35.6808C56.7075 35.4234 56.8097 35.2284 57.014 35.0802C57.2261 34.9242 57.5247 34.8463 57.9019 34.8463C58.2319 34.8463 58.5069 34.8697 58.7269 34.9164C58.9234 34.9554 59.0962 35.01 59.2455 35.0802V35.8835Z" fill="white"></path><path d="M66.9619 32.0078C66.734 31.7271 66.459 31.5165 66.1447 31.3761C65.8383 31.2435 65.5004 31.1733 65.1547 31.1733C64.8089 31.1733 64.4868 31.2435 64.2039 31.3995C63.9918 31.5087 63.7953 31.6413 63.6067 31.7973V31.4073C63.6067 31.3527 63.5596 31.3059 63.5124 31.3059H62.2867C62.2317 31.3059 62.1924 31.3527 62.1924 31.4073V40.9066C62.1924 40.9066 62.2081 40.9768 62.2395 40.9924C62.2552 41.0002 62.271 41.008 62.2867 41.008C62.3024 41.008 62.3181 41.008 62.3338 41.0002L63.5596 40.3685C63.5596 40.3685 63.6146 40.3217 63.6146 40.2827V37.3424C63.7639 37.475 63.9525 37.5998 64.1568 37.7012C64.4475 37.8494 64.7696 37.9274 65.0997 37.9274C65.4297 37.9274 65.7676 37.8572 66.0819 37.7246C66.3962 37.592 66.6712 37.3892 66.9069 37.1163C67.1426 36.8433 67.3312 36.5001 67.4726 36.0946C67.6141 35.689 67.6848 35.2055 67.6848 34.6595C67.6848 34.0512 67.6219 33.5287 67.4962 33.0997C67.3705 32.663 67.1898 32.2964 66.9619 32.0156M65.909 36.1336C65.6968 36.4377 65.3904 36.5859 64.9739 36.5859C64.8247 36.5859 64.6832 36.5625 64.5575 36.5157C64.4239 36.4689 64.2903 36.3988 64.1725 36.3286C64.0546 36.2506 63.9368 36.1648 63.8425 36.079C63.7482 35.9932 63.6775 35.9152 63.6146 35.8294V33.2713C63.7639 33.0841 63.9525 32.9125 64.1803 32.7644C64.4082 32.6162 64.6596 32.5382 64.9425 32.5382C65.3668 32.5382 65.6811 32.702 65.9011 33.0295C66.129 33.3649 66.2469 33.9264 66.2469 34.6985C66.2469 35.3381 66.1369 35.8216 65.9168 36.1336H65.909Z" fill="white"></path><path d="M72.1715 31.3137H70.71V28.9739C70.71 28.9739 70.6943 28.9038 70.6628 28.8882C70.6471 28.8804 70.6314 28.8726 70.6157 28.8726C70.6 28.8726 70.5842 28.8726 70.5685 28.8804L69.3585 29.5277C69.3585 29.5277 69.3035 29.5745 69.3035 29.6135V31.3059H68.502C68.447 31.3059 68.4077 31.3527 68.4077 31.4073V32.5303C68.4077 32.5849 68.4549 32.6317 68.502 32.6317H69.3035V36.1569C69.3035 36.7419 69.4371 37.1942 69.7121 37.4828C69.9792 37.7714 70.3564 37.9195 70.82 37.9195C71.0793 37.9195 71.315 37.8961 71.5193 37.8416C71.7314 37.787 71.92 37.7168 72.0772 37.6232C72.1008 37.6076 72.1243 37.5764 72.1243 37.553L72.2658 36.4611C72.2658 36.4611 72.2579 36.3909 72.2186 36.3675C72.2029 36.3597 72.1793 36.3519 72.1636 36.3519C72.1479 36.3519 72.1322 36.3519 72.1165 36.3675C72.0143 36.4299 71.8807 36.4845 71.7157 36.5313C71.5586 36.5781 71.4014 36.6015 71.2521 36.6015C71.0478 36.6015 70.9064 36.5547 70.8278 36.4767C70.7728 36.4221 70.71 36.2817 70.71 35.9464V32.6395H72.1715C72.2265 32.6395 72.2658 32.5927 72.2658 32.5381V31.4151C72.2658 31.3605 72.2186 31.3137 72.1715 31.3137Z" fill="white"></path><path d="M84.5702 35.1738C84.4759 34.9554 84.3345 34.7605 84.1381 34.5889C83.9495 34.4251 83.7216 34.2847 83.4466 34.1521C83.1795 34.0273 82.8652 33.8948 82.5116 33.7622C82.2758 33.6686 82.0794 33.5828 81.938 33.5048C81.7965 33.4268 81.6865 33.3644 81.6001 33.2942C81.5215 33.2318 81.4744 33.1772 81.4508 33.1226C81.4272 33.0681 81.4115 33.0057 81.4115 32.9433C81.4115 32.8029 81.4665 32.6937 81.5765 32.6079C81.6944 32.5143 81.8987 32.4675 82.1737 32.4675C82.4487 32.4675 82.7394 32.5143 82.9909 32.5923C83.2423 32.6781 83.4938 32.8107 83.7452 32.9901C83.7688 33.0057 83.7923 33.0135 83.8238 33.0057C83.8473 33.0057 83.8709 32.9823 83.8866 32.9589L84.4288 32.0152C84.4524 31.9684 84.4445 31.9216 84.4052 31.8904C84.1145 31.6798 83.7845 31.5004 83.3995 31.3756C83.0145 31.2431 82.6137 31.1807 82.2051 31.1807C81.883 31.1807 81.5844 31.2197 81.3172 31.2899C81.0501 31.36 80.7986 31.477 80.6022 31.6252C80.3979 31.7812 80.2408 31.9762 80.1307 32.2024C80.0207 32.4285 79.9657 32.6937 79.9657 32.9901C79.9657 33.2474 79.9972 33.4814 80.0679 33.6764C80.1386 33.8792 80.2486 34.0585 80.4058 34.2223C80.5629 34.3783 80.7593 34.5265 81.0029 34.6669C81.2386 34.7995 81.5372 34.932 81.8751 35.0646C82.323 35.2362 82.6844 35.3922 82.9359 35.5326C83.1637 35.6574 83.2738 35.8133 83.2738 36.0239C83.2738 36.1721 83.2737 36.6167 82.2208 36.6167C81.938 36.6167 81.6394 36.5699 81.3329 36.4685C81.0265 36.3671 80.7279 36.2111 80.445 36.0161C80.4215 36.0005 80.3979 35.9927 80.3665 36.0005C80.3429 36.0005 80.3193 36.0239 80.3036 36.0473L79.7379 36.9832C79.7143 37.03 79.7222 37.0846 79.7614 37.1158C80.0915 37.3498 80.4765 37.5525 80.9086 37.7007C81.3408 37.8567 81.7887 37.9347 82.2287 37.9347C82.543 37.9347 82.8494 37.9035 83.1402 37.8411C83.4309 37.7709 83.6981 37.6695 83.9259 37.5136C84.1538 37.3654 84.3424 37.1626 84.476 36.913C84.6174 36.6635 84.6881 36.3515 84.6881 35.9849C84.6881 35.6808 84.641 35.4156 84.5467 35.1894" fill="white"></path><path d="M76.0528 31.1807C75.267 31.1807 74.5049 31.5004 73.9784 32.0854C73.4284 32.7015 73.1455 33.5984 73.1455 34.5577C73.1455 35.517 73.4677 36.4763 74.0491 37.1002C74.5677 37.6539 75.2985 37.9347 76.0607 37.9347C76.9328 37.9347 77.7736 37.5214 78.3079 36.8194C78.7558 36.2267 78.9679 35.4156 78.9679 34.5733C78.9679 33.6686 78.7086 32.8029 78.2136 32.1945C77.6872 31.5472 76.8935 31.1963 76.0607 31.1963M77.2236 35.8991C76.9485 36.3203 76.5164 36.5699 76.0607 36.5699C75.6678 36.5699 75.2906 36.4061 75.0235 36.0785C74.7249 35.712 74.5599 35.1504 74.5599 34.5655C74.5599 33.9806 74.7013 33.458 74.992 33.0992C75.2592 32.7483 75.6599 32.5611 76.0607 32.5611C76.4928 32.5611 76.9014 32.7717 77.1686 33.1538C77.4279 33.5126 77.5614 34.0351 77.5614 34.5655C77.5614 35.0724 77.4514 35.5482 77.2236 35.9069V35.8991Z" fill="white"></path><path d="M76.0531 28.8882L74.7173 30.2296H77.3967L76.0531 28.8882Z" fill="white"></path></g><defs><clipPath id="clip0_142_3909"><rect width="135" height="41" fill="white"></rect></clipPath></defs></svg>